<svg width="515" height="176" viewBox="0 0 515 176" fill="none" xmlns="http://www.w3.org/2000/svg">
<path d="M513.75 104.5C513.75 107.601 512.184 110.77 508.895 113.985C505.603 117.202 500.681 120.366 494.23 123.416C481.334 129.514 462.593 135.039 439.335 139.69C392.839 148.989 328.55 154.75 257.5 154.75C186.45 154.75 122.161 148.989 75.6651 139.69C52.4069 135.039 33.6661 129.514 20.77 123.416C14.3187 120.366 9.39691 117.202 6.1052 113.985C2.81557 110.77 1.25 107.601 1.25 104.5C1.25 101.399 2.81557 98.2301 6.1052 95.0149C9.39691 91.7977 14.3187 88.6344 20.77 85.5839C33.6661 79.4859 52.4069 73.9614 75.6651 69.3097C122.161 60.0106 186.45 54.25 257.5 54.25C328.55 54.25 392.839 60.0106 439.335 69.3097C462.593 73.9614 481.334 79.4859 494.23 85.5839C500.681 88.6344 505.603 91.7977 508.895 95.0149C512.184 98.2301 513.75 101.399 513.75 104.5Z" stroke="white" stroke-opacity="0.31" stroke-width="2.5"/>
<path d="M513.75 85.5C513.75 88.6007 512.184 91.7699 508.895 94.9851C505.603 98.2023 500.681 101.366 494.23 104.416C481.334 110.514 462.593 116.039 439.335 120.69C392.839 129.989 328.55 135.75 257.5 135.75C186.45 135.75 122.161 129.989 75.6651 120.69C52.4069 116.039 33.6661 110.514 20.77 104.416C14.3187 101.366 9.39691 98.2023 6.1052 94.9851C2.81557 91.7699 1.25 88.6007 1.25 85.5C1.25 82.3993 2.81557 79.2301 6.1052 76.0149C9.39691 72.7977 14.3187 69.6344 20.77 66.5839C33.6661 60.4859 52.4069 54.9614 75.6651 50.3097C122.161 41.0106 186.45 35.25 257.5 35.25C328.55 35.25 392.839 41.0106 439.335 50.3097C462.593 54.9614 481.334 60.4859 494.23 66.5839C500.681 69.6344 505.603 72.7977 508.895 76.0149C512.184 79.2301 513.75 82.3993 513.75 85.5Z" stroke="white" stroke-opacity="0.31" stroke-width="2.5"/>
<path d="M513.75 124.5C513.75 127.601 512.184 130.77 508.895 133.985C505.603 137.202 500.681 140.366 494.23 143.416C481.334 149.514 462.593 155.039 439.335 159.69C392.839 168.989 328.55 174.75 257.5 174.75C186.45 174.75 122.161 168.989 75.6651 159.69C52.4069 155.039 33.6661 149.514 20.77 143.416C14.3187 140.366 9.39691 137.202 6.1052 133.985C2.81557 130.77 1.25 127.601 1.25 124.5C1.25 121.399 2.81557 118.23 6.1052 115.015C9.39691 111.798 14.3187 108.634 20.77 105.584C33.6661 99.4859 52.4069 93.9614 75.6651 89.3097C122.161 80.0106 186.45 74.25 257.5 74.25C328.55 74.25 392.839 80.0106 439.335 89.3097C462.593 93.9614 481.334 99.4859 494.23 105.584C500.681 108.634 505.603 111.798 508.895 115.015C512.184 118.23 513.75 121.399 513.75 124.5Z" stroke="white" stroke-opacity="0.31" stroke-width="2.5"/>
<path d="M513.75 51.5C513.75 54.6007 512.184 57.7699 508.895 60.9851C505.603 64.2023 500.681 67.3656 494.23 70.4161C481.334 76.5141 462.593 82.0386 439.335 86.6903C392.839 95.9894 328.55 101.75 257.5 101.75C186.45 101.75 122.161 95.9894 75.6651 86.6903C52.4069 82.0386 33.6661 76.5141 20.77 70.4161C14.3187 67.3656 9.39691 64.2023 6.1052 60.9851C2.81557 57.7699 1.25 54.6007 1.25 51.5C1.25 48.3993 2.81557 45.2301 6.1052 42.0149C9.39691 38.7977 14.3187 35.6344 20.77 32.5839C33.6661 26.4859 52.4069 20.9614 75.6651 16.3097C122.161 7.01056 186.45 1.25 257.5 1.25C328.55 1.25 392.839 7.01056 439.335 16.3097C462.593 20.9614 481.334 26.4859 494.23 32.5839C500.681 35.6344 505.603 38.7977 508.895 42.0149C512.184 45.2301 513.75 48.3993 513.75 51.5Z" stroke="white" stroke-opacity="0.31" stroke-width="2.5"/>
<path d="M513.75 68C513.75 71.1398 512.18 74.3438 508.891 77.5901C505.598 80.839 500.677 84.0329 494.226 87.1127C481.33 93.2696 462.59 98.8476 439.333 103.544C392.838 112.934 328.549 118.75 257.5 118.75C186.451 118.75 122.162 112.934 75.6674 103.544C52.4097 98.8476 33.6696 93.2696 20.7742 87.1127C14.3235 84.0329 9.40164 80.839 6.10951 77.5901C2.81998 74.3438 1.25 71.1398 1.25 68C1.25 64.8602 2.81998 61.6562 6.10951 58.4099C9.40164 55.161 14.3235 51.9671 20.7742 48.8873C33.6696 42.7304 52.4097 37.1524 75.6674 32.4557C122.162 23.0664 186.451 17.25 257.5 17.25C328.549 17.25 392.838 23.0664 439.333 32.4557C462.59 37.1524 481.33 42.7304 494.226 48.8873C500.677 51.9671 505.598 55.161 508.891 58.4099C512.18 61.6562 513.75 64.8602 513.75 68Z" stroke="white" stroke-opacity="0.31" stroke-width="2.5"/>
</svg>
